<svg xmlns="http://www.w3.org/2000/svg" id = "border" width="900" height="400" viewBox="0 0 900 400">
  <style>
    #sgv-text { fill:black; font-size:50px; font-family:Times, serif; }
    #sgv-text2 { fill:black; font-size:30px; font-family:Times, serif; }
    text { fill:black; }
  </style>
    
  <polyline points="200,20 800,20" fill="none" stroke="black" 
    stroke-width="2" />
  <polyline points="200,120 800,120" fill="none" stroke="black" 
    stroke-width="2" />
  <polyline points="200,220 800,220" fill="none" stroke="black" 
    stroke-width="2" />
  <polyline points="200,320 800,320" fill="none" stroke="black" 
    stroke-width="2" />
  <polyline points="200,20 200,320" fill="none" stroke="black" 
    stroke-width="2" />
  <polyline points="400,20 400,320" fill="none" stroke="black" 
    stroke-width="2" />
  <polyline points="600,20 600,320" fill="none" stroke="black" 
    stroke-width="2" />
  <polyline points="800,20 800,320" fill="none" stroke="black" 
    stroke-width="2" />
  <polyline points="200,20 400,120" fill="none" stroke="black" 
    stroke-width="2" />

  <text id = "sgv-text2" x="220" y="100" > 남편 </text>
  <text id = "sgv-text2" x="320" y="70" > 아내 </text>
  <text id = "sgv-text2" x="455" y="85" > 야구장 </text>
  <text id = "sgv-text2" x="655" y="85" > 뮤지컬 </text>
  <text id = "sgv-text2" x="260" y="190" > 야구장 </text>
  <text id = "sgv-text2" x="260" y="290" > 뮤지컬 </text>
  <text id = "sgv-text" x="465" y="190" > 5, 3 </text>
  <text id = "sgv-text" x="665" y="190" > 0, 0 </text>
  <text id = "sgv-text" x="465" y="290" > 0, 0 </text>
  <text id = "sgv-text" x="665" y="290" > 3, 5 </text>

  <text x="300" y="370" style="font-size:30px"> &lt;표 1&gt; 부부갈등 게임 </text>

</svg>