<svg xmlns="http://www.w3.org/2000/svg" id = "border" width="1200" height="400" viewBox="0 -50 1200 350">
<style>#sgv-text{fill:black;font-size:50px;font-family:Times,serif;}#sgv-text2{fill:black;font-size:30px;font-family:Times,serif;}text{fill:black;}</style>
    
    <polyline points="200,20 1200,20" fill="none" stroke="black" 
      stroke-width="2" />
    <polyline points="200,120 1200,120" fill="none" stroke="black" 
      stroke-width="2" />
    <polyline points="200,220 1200,220" fill="none" stroke="black" 
      stroke-width="2" />
    <polyline points="200,320 1200,320" fill="none" stroke="black" 
      stroke-width="2" />
    <polyline points="200,20 200,320" fill="none" stroke="black" 
      stroke-width="2" />
    <polyline points="400,20 400,320" fill="none" stroke="black" 
      stroke-width="2" />
    <polyline points="600,20 600,320" fill="none" stroke="black" 
      stroke-width="2" />
    <polyline points="800,20 800,320" fill="none" stroke="black" 
      stroke-width="2" />
      <polyline points="1000,20 1000,320" fill="none" stroke="black" 
      stroke-width="2" />
      <polyline points="1200,20 1200,320" fill="none" stroke="black" 
      stroke-width="2" />
    <polyline points="200,20 400,120" fill="none" stroke="black" 
      stroke-width="2" />
  
    <text id = "sgv-text" x="220" y="100" > 갑 </text>
    <text id = "sgv-text" x="320" y="70" > 을 </text>
    <text id = "sgv-text" x="445" y="55" > a -> c </text>
    <text id = "sgv-text" x="445" y="105" > b -> c </text>
    <text id = "sgv-text" x="645" y="55" > a -> c </text>
    <text id = "sgv-text" x="645" y="105" > b -> d </text>
    <text id = "sgv-text" x="845" y="55" > a -> d </text>
    <text id = "sgv-text" x="845" y="105" > b -> c </text>
    <text id = "sgv-text" x="1045" y="55" > a -> d </text>
    <text id = "sgv-text" x="1045" y="105" > b -> d </text>
    <text id = "sgv-text" x="280" y="190" > a </text>
    <text id = "sgv-text" x="280" y="290" > b </text>
    <text id = "sgv-text" x="465" y="190" > 3, 2 </text>
    <text id = "sgv-text" x="665" y="190" > 3, 2 </text>
    <text id = "sgv-text" x="865" y="190" > 6, 4 </text>
    <text id = "sgv-text" x="1065" y="190" > 6, 4 </text>
    <text id = "sgv-text" x="465" y="290" > 1, 3 </text>
    <text id = "sgv-text" x="665" y="290" > 4, 5 </text>
    <text id = "sgv-text" x="865" y="290" > 1, 3 </text>
    <text id = "sgv-text" x="1065" y="290" > 4, 5 </text>
    <ellipse cx="700" cy="270" rx="80" ry="40" style="fill:none;stroke:purple;stroke-width:3"/>
    <ellipse cx="905" cy="170" rx="80" ry="40" style="fill:none;stroke:purple;stroke-width:3"/>
    <ellipse cx="1105" cy="170" rx="80" ry="40" style="fill:none;stroke:purple;stroke-width:3"/>
    <text id = "sgv-text" x="300" y="-10"> &lt;표 2&gt; 표형 </text>
</svg>