<svg xmlns="http://www.w3.org/2000/svg" viewBox="0 0 624 652" width="624" height="652" style="display:block;max-width:100%;margin:0 auto"><defs><marker id="arrow" markerWidth="8" markerHeight="8" refX="7" refY="3" orient="auto"><path d="M0,0 L0,6 L7,3 z" fill="#000000"/></marker></defs><line x1="20" y1="568" x2="477" y2="566" stroke="#000000" stroke-width="2.37" opacity="1.0" marker-end="url(#arrow)"/><line x1="87" y1="75" x2="88" y2="621" stroke="#000000" stroke-width="2.37" opacity="1.0" marker-start="url(#arrow)"/><line x1="331" y1="115" x2="53" y2="632" stroke="#0000ff" stroke-width="1.58" opacity="1.0"/><rect x="98" y="566" width="127" height="55" rx="3" fill="none" fill-opacity="1.0" stroke="none" stroke-width="0.5" opacity="1.0"/><text x="161" y="593" text-anchor="middle" dominant-baseline="middle" font-size="28" font-weight="400" font-style="normal" fill="#000000" opacity="1.0">0</text><rect x="53" y="20" width="127" height="55" rx="3" fill="none" fill-opacity="1.0" stroke="none" stroke-width="0.5" opacity="1.0"/><text x="116" y="48" text-anchor="middle" dominant-baseline="middle" font-size="28" font-weight="400" font-style="normal" fill="#000000" opacity="1.0">y(t)</text><rect x="477" y="538" width="127" height="55" rx="3" fill="none" fill-opacity="1.0" stroke="none" stroke-width="0.5" opacity="1.0"/><text x="540" y="566" text-anchor="middle" dominant-baseline="middle" font-size="28" font-weight="400" font-style="normal" fill="#000000" opacity="1.0">x(t)</text><rect x="343" y="75" width="176" height="55" rx="3" fill="none" fill-opacity="1.0" stroke="none" stroke-width="0.5" opacity="1.0"/><text x="431" y="103" text-anchor="middle" dominant-baseline="middle" font-size="28" font-weight="400" font-style="normal" fill="#000000" opacity="1.0">y=2x</text><line x1="325" y1="183" x2="325" y2="274" stroke="#ff0000" stroke-width="0.5" opacity="1.0" marker-end="url(#arrow)"/><line x1="192" y1="424" x2="192" y2="515" stroke="#ff0000" stroke-width="0.5" opacity="1.0" marker-end="url(#arrow)"/><line x1="262" y1="104" x2="262" y2="185" stroke="#ff0000" stroke-width="0.5" opacity="1.0" marker-end="url(#arrow)"/><line x1="160" y1="274" x2="160" y2="355" stroke="#ff0000" stroke-width="0.5" opacity="1.0" marker-end="url(#arrow)"/></svg>