<svg xmlns="http://www.w3.org/2000/svg" viewBox="0 0 679 629" width="679" height="629" style="display:block;max-width:100%;margin:0 auto"><defs><marker id="arrow" markerWidth="8" markerHeight="8" refX="7" refY="3" orient="auto"><path d="M0,0 L0,6 L7,3 z" fill="#000000"/></marker></defs><line x1="20" y1="368" x2="611" y2="367" stroke="#000000" stroke-width="2.37" opacity="1.0" marker-start="url(#arrow)" marker-end="url(#arrow)"/><line x1="326" y1="73" x2="327" y2="609" stroke="#4c4cff" stroke-width="2.37" opacity="1.0" marker-start="url(#arrow)" marker-end="url(#arrow)"/><rect x="306" y="20" width="47" height="55" rx="3" fill="none" fill-opacity="1.0" stroke="none" stroke-width="0.5" opacity="1.0"/><text x="329" y="47" text-anchor="middle" dominant-baseline="middle" font-size="28" font-weight="400" font-style="normal" fill="#000000" opacity="1.0">y</text><rect x="611" y="341" width="47" height="55" rx="3" fill="none" fill-opacity="1.0" stroke="none" stroke-width="0.5" opacity="1.0"/><text x="635" y="368" text-anchor="middle" dominant-baseline="middle" font-size="28" font-weight="400" font-style="normal" fill="#000000" opacity="1.0">x</text><rect x="292" y="368" width="47" height="55" rx="3" fill="none" fill-opacity="1.0" stroke="none" stroke-width="0.5" opacity="1.0"/><text x="316" y="396" text-anchor="middle" dominant-baseline="middle" font-size="28" font-weight="400" font-style="normal" fill="#000000" opacity="1.0">0</text><line x1="432" y1="207" x2="346" y2="207" stroke="#ff0000" stroke-width="0.5" opacity="1.0" marker-end="url(#arrow)"/><line x1="432" y1="499" x2="346" y2="499" stroke="#ff0000" stroke-width="0.5" opacity="1.0" marker-end="url(#arrow)"/><line x1="220" y1="167" x2="306" y2="167" stroke="#ff0000" stroke-width="0.5" opacity="1.0" marker-end="url(#arrow)"/><line x1="219" y1="465" x2="305" y2="465" stroke="#ff0000" stroke-width="0.5" opacity="1.0" marker-end="url(#arrow)"/><line x1="219" y1="297" x2="305" y2="297" stroke="#ff0000" stroke-width="0.5" opacity="1.0" marker-end="url(#arrow)"/><line x1="431" y1="319" x2="345" y2="319" stroke="#ff0000" stroke-width="0.5" opacity="1.0" marker-end="url(#arrow)"/></svg>