<svg xmlns="http://www.w3.org/2000/svg" viewBox="0 0 796 671" width="796" height="671" style="display:block;max-width:100%;margin:0 auto"><defs><marker id="arrow" markerWidth="8" markerHeight="8" refX="7" refY="3" orient="auto"><path d="M0,0 L0,6 L7,3 z" fill="#000000"/></marker></defs><line x1="20" y1="411" x2="720" y2="410" stroke="#000000" stroke-width="2.37" opacity="1.0" marker-start="url(#arrow)" marker-end="url(#arrow)"/><line x1="382" y1="75" x2="384" y2="651" stroke="#4c4cff" stroke-width="2.37" opacity="1.0" marker-start="url(#arrow)" marker-end="url(#arrow)"/><line x1="62" y1="464" x2="634" y2="191" stroke="#4c4cff" stroke-width="2.37" opacity="1.0"/><rect x="363" y="20" width="56" height="55" rx="3" fill="none" fill-opacity="1.0" stroke="none" stroke-width="0.5" opacity="1.0"/><text x="391" y="47" text-anchor="middle" dominant-baseline="middle" font-size="28" font-weight="400" font-style="normal" fill="#000000" opacity="1.0">y</text><rect x="720" y="382" width="56" height="55" rx="3" fill="none" fill-opacity="1.0" stroke="none" stroke-width="0.5" opacity="1.0"/><text x="748" y="410" text-anchor="middle" dominant-baseline="middle" font-size="28" font-weight="400" font-style="normal" fill="#000000" opacity="1.0">x</text><rect x="342" y="410" width="56" height="55" rx="3" fill="none" fill-opacity="1.0" stroke="none" stroke-width="0.5" opacity="1.0"/><text x="370" y="437" text-anchor="middle" dominant-baseline="middle" font-size="28" font-weight="400" font-style="normal" fill="#000000" opacity="1.0">0</text><rect x="144" y="406" width="96" height="87" rx="3" fill="none" fill-opacity="1.0" stroke="none" stroke-width="0.5" opacity="1.0"/><text x="192" y="450" text-anchor="middle" dominant-baseline="middle" font-size="28" font-weight="400" font-style="normal" fill="#000000" opacity="1.0">-16</text><rect x="335" y="266" width="56" height="55" rx="3" fill="none" fill-opacity="1.0" stroke="none" stroke-width="0.5" opacity="1.0"/><text x="363" y="294" text-anchor="middle" dominant-baseline="middle" font-size="28" font-weight="400" font-style="normal" fill="#000000" opacity="1.0">8</text><line x1="197" y1="214" x2="197" y2="312" stroke="#ff0000" stroke-width="0.5" opacity="1.0" marker-end="url(#arrow)"/><line x1="489" y1="102" x2="489" y2="200" stroke="#ff0000" stroke-width="0.5" opacity="1.0" marker-end="url(#arrow)"/><line x1="240" y1="537" x2="240" y2="439" stroke="#ff0000" stroke-width="0.5" opacity="1.0" marker-end="url(#arrow)"/><line x1="540" y1="427" x2="540" y2="329" stroke="#ff0000" stroke-width="0.5" opacity="1.0" marker-end="url(#arrow)"/><line x1="540" y1="427" x2="442" y2="427" stroke="#ff0000" stroke-width="0.5" opacity="1.0" marker-end="url(#arrow)"/><line x1="241" y1="537" x2="339" y2="537" stroke="#ff0000" stroke-width="0.5" opacity="1.0" marker-end="url(#arrow)"/><line x1="197" y1="214" x2="295" y2="214" stroke="#ff0000" stroke-width="0.5" opacity="1.0" marker-end="url(#arrow)"/><line x1="489" y1="102" x2="391" y2="102" stroke="#ff0000" stroke-width="0.5" opacity="1.0" marker-end="url(#arrow)"/><line x1="199" y1="215" x2="282" y2="302" stroke="#00cc00" stroke-width="0.5" opacity="1.0" marker-end="url(#arrow)"/><line x1="488" y1="104" x2="399" y2="191" stroke="#00cc00" stroke-width="0.5" opacity="1.0" marker-end="url(#arrow)"/><line x1="539" y1="429" x2="460" y2="345" stroke="#00cc00" stroke-width="0.5" opacity="1.0" marker-end="url(#arrow)"/><line x1="241" y1="534" x2="323" y2="454" stroke="#00cc00" stroke-width="0.5" opacity="1.0" marker-end="url(#arrow)"/><path d="M 142.76 301.60 A 119.00 121.00 0 1 1 307.57 340.29" fill="none" stroke="#de9e17" stroke-width="11.9" opacity="1.0"/><path d="M 463.50 55.41 A 126.00 128.00 0 0 1 405.75 225.79" fill="none" stroke="#de9e17" stroke-width="11.9" opacity="1.0"/><path d="M 339.44 566.02 A 115.00 116.00 0 0 1 367.53 405.34" fill="none" stroke="#de9e17" stroke-width="11.9" opacity="1.0"/><path d="M 640.90 343.82 A 133.00 134.00 0 1 1 471.26 260.45" fill="none" stroke="#de9e17" stroke-width="11.9" opacity="1.0"/></svg>