<svg xmlns="http://www.w3.org/2000/svg" viewBox="0 0 1020 1290" width="1020" height="1290" style="display:block;max-width:100%;margin:0 auto"><defs><marker id="arrow" markerWidth="8" markerHeight="8" refX="7" refY="3" orient="auto"><path d="M0,0 L0,6 L7,3 z" fill="#000000"/></marker></defs><line x1="89" y1="93" x2="89" y2="797" stroke="#000000" stroke-width="2.37" opacity="1.0" marker-end="url(#arrow)"/><line x1="89" y1="795" x2="862" y2="798" stroke="#000000" stroke-width="2.37" opacity="1.0" marker-end="url(#arrow)"/><line x1="89" y1="795" x2="644" y2="282" stroke="#ca56a7" stroke-width="2.37" opacity="1.0"/><rect x="34" y="779" width="55" height="63" rx="3" fill="none" fill-opacity="1.0" stroke="none" stroke-width="0.5" opacity="1.0"/><text x="62" y="811" text-anchor="middle" dominant-baseline="middle" font-size="28" font-weight="400" font-style="normal" fill="#000000" opacity="1.0">0</text><rect x="878" y="760" width="71" height="72" rx="3" fill="none" fill-opacity="1.0" stroke="none" stroke-width="0.5" opacity="1.0"/><text x="914" y="796" text-anchor="middle" dominant-baseline="middle" font-size="28" font-weight="400" font-style="normal" fill="#000000" opacity="1.0">yt</text><rect x="20" y="20" width="96" height="75" rx="3" fill="none" fill-opacity="1.0" stroke="none" stroke-width="0.5" opacity="1.0"/><text x="68" y="58" text-anchor="middle" dominant-baseline="middle" font-size="28" font-weight="400" font-style="normal" fill="#000000" opacity="1.0">yt₊₁</text><rect x="620" y="182" width="191" height="61" rx="3" fill="none" fill-opacity="1.0" stroke="none" stroke-width="0.5" opacity="1.0"/><text x="716" y="212" text-anchor="middle" dominant-baseline="middle" font-size="28" font-weight="400" font-style="normal" fill="#000000" opacity="1.0">yt₊₁ =yt</text><path d="M 431.00 322.00 A 272.00 476.00 0 0 1 703.00 798.00" fill="none" stroke="#000000" stroke-width="0.5" opacity="1.0"/><path d="M 431.00 322.00 A 342.00 474.00 0 1 1 89.00 796.00" fill="none" stroke="#000000" stroke-width="0.5" opacity="1.0"/><line x1="183" y1="797" x2="182" y2="471" stroke="#000000" stroke-width="0.5" opacity="1.0" marker-end="url(#arrow)"/><line x1="183" y1="478" x2="434" y2="478" stroke="#000000" stroke-width="0.5" opacity="1.0" marker-end="url(#arrow)"/><line x1="434" y1="323" x2="434" y2="477" stroke="#000000" stroke-width="0.5" opacity="1.0" marker-end="url(#arrow)"/><line x1="431" y1="323" x2="597" y2="326" stroke="#000000" stroke-width="0.5" opacity="1.0" marker-end="url(#arrow)"/><line x1="598" y1="329" x2="598" y2="420" stroke="#000000" stroke-width="0.5" opacity="1.0" marker-end="url(#arrow)"/><line x1="498" y1="417" x2="597" y2="417" stroke="#000000" stroke-width="0.5" opacity="1.0" marker-end="url(#arrow)"/><line x1="499" y1="420" x2="501" y2="340" stroke="#000000" stroke-width="0.5" opacity="1.0" marker-end="url(#arrow)"/><line x1="501" y1="340" x2="581" y2="342" stroke="#000000" stroke-width="0.5" opacity="1.0" marker-end="url(#arrow)"/><line x1="580" y1="342" x2="581" y2="394" stroke="#000000" stroke-width="0.5" opacity="1.0" marker-end="url(#arrow)"/><line x1="581" y1="397" x2="527" y2="398" stroke="#000000" stroke-width="0.5" opacity="1.0" marker-end="url(#arrow)"/><line x1="526" y1="397" x2="526" y2="353" stroke="#000000" stroke-width="0.5" opacity="1.0" marker-end="url(#arrow)"/><line x1="529" y1="353" x2="567" y2="355" stroke="#000000" stroke-width="0.5" opacity="1.0" marker-end="url(#arrow)"/><rect x="681" y="477" width="318" height="61" rx="3" fill="none" fill-opacity="1.0" stroke="none" stroke-width="0.5" opacity="1.0"/><text x="841" y="508" text-anchor="middle" dominant-baseline="middle" font-size="28" font-weight="400" font-style="normal" fill="#000000" opacity="1.0">yt₊₁ =ryt (1-yt)</text><line x1="552" y1="372" x2="551" y2="799" stroke="#ff0000" stroke-width="0.5" opacity="1.0" stroke-dasharray="2 4"/><rect x="500" y="811" width="105" height="99" rx="3" fill="none" fill-opacity="1.0" stroke="none" stroke-width="0.5" opacity="1.0"/><text x="552" y="860" text-anchor="middle" dominant-baseline="middle" font-size="28" font-weight="400" font-style="normal" fill="#000000" opacity="1.0">{r-1} over {r}</text><line x1="428" y1="324" x2="428" y2="798" stroke="#ff0000" stroke-width="0.5" opacity="1.0" stroke-dasharray="2 4"/><rect x="390" y="798" width="82" height="115" rx="3" fill="none" fill-opacity="1.0" stroke="none" stroke-width="0.5" opacity="1.0"/><text x="431" y="856" text-anchor="middle" dominant-baseline="middle" font-size="28" font-weight="400" font-style="normal" fill="#000000" opacity="1.0">{1} over {2}</text></svg>