<svg xmlns="http://www.w3.org/2000/svg" viewBox="0 0 969 1313" width="969" height="1313" style="display:block;max-width:100%;margin:0 auto"><defs><marker id="arrow" markerWidth="8" markerHeight="8" refX="7" refY="3" orient="auto"><path d="M0,0 L0,6 L7,3 z" fill="#000000"/></marker></defs><line x1="89" y1="93" x2="89" y2="797" stroke="#000000" stroke-width="2.37" opacity="1.0" marker-end="url(#arrow)"/><line x1="89" y1="795" x2="862" y2="798" stroke="#000000" stroke-width="2.37" opacity="1.0" marker-end="url(#arrow)"/><line x1="89" y1="795" x2="644" y2="282" stroke="#ca56a7" stroke-width="2.37" opacity="1.0"/><rect x="34" y="779" width="55" height="63" rx="3" fill="none" fill-opacity="1.0" stroke="none" stroke-width="0.5" opacity="1.0"/><text x="62" y="811" text-anchor="middle" dominant-baseline="middle" font-size="28" font-weight="400" font-style="normal" fill="#000000" opacity="1.0">0</text><rect x="878" y="760" width="71" height="72" rx="3" fill="none" fill-opacity="1.0" stroke="none" stroke-width="0.5" opacity="1.0"/><text x="914" y="796" text-anchor="middle" dominant-baseline="middle" font-size="28" font-weight="400" font-style="normal" fill="#000000" opacity="1.0">yt</text><rect x="20" y="20" width="96" height="75" rx="3" fill="none" fill-opacity="1.0" stroke="none" stroke-width="0.5" opacity="1.0"/><text x="68" y="58" text-anchor="middle" dominant-baseline="middle" font-size="28" font-weight="400" font-style="normal" fill="#000000" opacity="1.0">yt₊₁</text><rect x="639" y="212" width="191" height="61" rx="3" fill="none" fill-opacity="1.0" stroke="none" stroke-width="0.5" opacity="1.0"/><text x="734" y="243" text-anchor="middle" dominant-baseline="middle" font-size="28" font-weight="400" font-style="normal" fill="#000000" opacity="1.0">yt₊₁ =yt</text><path d="M 367.00 303.00 A 277.00 495.00 0 1 1 90.00 798.00" fill="none" stroke="#000000" stroke-width="0.5" opacity="1.0"/><rect x="135" y="242" width="318" height="61" rx="3" fill="none" fill-opacity="1.0" stroke="none" stroke-width="0.5" opacity="1.0"/><text x="294" y="272" text-anchor="middle" dominant-baseline="middle" font-size="28" font-weight="400" font-style="normal" fill="#000000" opacity="1.0">yt₊₁ =ryt (1-yt)</text><rect x="464" y="798" width="56" height="81" rx="3" fill="none" fill-opacity="1.0" stroke="none" stroke-width="0.5" opacity="1.0"/><text x="492" y="839" text-anchor="middle" dominant-baseline="middle" font-size="28" font-weight="400" font-style="normal" fill="#000000" opacity="1.0">y₀</text><path d="M 361.00 303.00 A 277.00 495.00 0 0 1 638.00 798.00" fill="none" stroke="#000000" stroke-width="0.5" opacity="1.0"/><line x1="500" y1="798" x2="500" y2="371" stroke="#000000" stroke-width="0.5" opacity="1.0" marker-end="url(#arrow)"/><line x1="501" y1="370" x2="551" y2="371" stroke="#000000" stroke-width="0.5" opacity="1.0" marker-end="url(#arrow)"/><line x1="550" y1="372" x2="552" y2="436" stroke="#000000" stroke-width="0.5" opacity="1.0" marker-end="url(#arrow)"/><line x1="553" y1="441" x2="474" y2="442" stroke="#000000" stroke-width="0.5" opacity="1.0" marker-end="url(#arrow)"/><line x1="475" y1="343" x2="475" y2="443" stroke="#000000" stroke-width="0.5" opacity="1.0" marker-end="url(#arrow)"/><line x1="475" y1="348" x2="577" y2="348" stroke="#000000" stroke-width="0.5" opacity="1.0" marker-end="url(#arrow)"/><line x1="579" y1="349" x2="579" y2="493" stroke="#000000" stroke-width="0.5" opacity="1.0" marker-end="url(#arrow)"/><line x1="581" y1="488" x2="420" y2="489" stroke="#000000" stroke-width="0.5" opacity="1.0" marker-end="url(#arrow)"/><line x1="421" y1="492" x2="421" y2="311" stroke="#000000" stroke-width="0.5" opacity="1.0" marker-end="url(#arrow)"/><line x1="424" y1="312" x2="617" y2="312" stroke="#000000" stroke-width="0.5" opacity="1.0" marker-end="url(#arrow)"/><line x1="614" y1="314" x2="618" y2="611" stroke="#000000" stroke-width="0.5" opacity="1.0" marker-end="url(#arrow)"/><line x1="615" y1="608" x2="292" y2="607" stroke="#000000" stroke-width="0.5" opacity="1.0" marker-end="url(#arrow)"/><line x1="291" y1="325" x2="292" y2="608" stroke="#000000" stroke-width="0.5" opacity="1.0" marker-end="url(#arrow)"/><line x1="290" y1="328" x2="594" y2="329" stroke="#000000" stroke-width="0.5" opacity="1.0" marker-end="url(#arrow)"/><line x1="293" y1="615" x2="294" y2="798" stroke="#000000" stroke-width="0.5" opacity="1.0" stroke-dasharray="2 4"/><rect x="266" y="798" width="56" height="81" rx="3" fill="none" fill-opacity="1.0" stroke="none" stroke-width="0.5" opacity="1.0"/><text x="294" y="838" text-anchor="middle" dominant-baseline="middle" font-size="28" font-weight="400" font-style="normal" fill="#000000" opacity="1.0">y₆</text></svg>