<svg xmlns="http://www.w3.org/2000/svg" viewBox="0 0 918 828" width="918" height="828" style="display:block;max-width:100%;margin:0 auto"><defs><marker id="arrow" markerWidth="8" markerHeight="8" refX="7" refY="3" orient="auto"><path d="M0,0 L0,6 L7,3 z" fill="#000000"/></marker></defs><line x1="406" y1="95" x2="406" y2="799" stroke="#000000" stroke-width="2.37" opacity="1.0" marker-end="url(#arrow)"/><line x1="20" y1="484" x2="793" y2="487" stroke="#000000" stroke-width="2.37" opacity="1.0" marker-end="url(#arrow)"/><line x1="205" y1="808" x2="595" y2="183" stroke="#ca56a7" stroke-width="2.37" opacity="1.0"/><rect x="319" y="496" width="55" height="63" rx="3" fill="none" fill-opacity="1.0" stroke="none" stroke-width="0.5" opacity="1.0"/><text x="346" y="527" text-anchor="middle" dominant-baseline="middle" font-size="28" font-weight="400" font-style="normal" fill="#000000" opacity="1.0">0</text><rect x="793" y="456" width="105" height="71" rx="3" fill="none" fill-opacity="1.0" stroke="none" stroke-width="0.5" opacity="1.0"/><text x="845" y="491" text-anchor="middle" dominant-baseline="middle" font-size="28" font-weight="400" font-style="normal" fill="#000000" opacity="1.0">y₁ (t)</text><rect x="346" y="20" width="113" height="75" rx="3" fill="none" fill-opacity="1.0" stroke="none" stroke-width="0.5" opacity="1.0"/><text x="403" y="58" text-anchor="middle" dominant-baseline="middle" font-size="28" font-weight="400" font-style="normal" fill="#000000" opacity="1.0">y₂ (t)</text><rect x="583" y="117" width="277" height="77" rx="3" fill="none" fill-opacity="1.0" stroke="none" stroke-width="0.5" opacity="1.0"/><text x="721" y="156" text-anchor="middle" dominant-baseline="middle" font-size="28" font-weight="400" font-style="normal" fill="#000000" opacity="1.0">y₂ (t)=2y₁ (t)</text><line x1="270" y1="283" x2="374" y2="283" stroke="#4c4cff" stroke-width="0.5" opacity="1.0" marker-end="url(#arrow)"/><line x1="125" y1="615" x2="228" y2="615" stroke="#4c4cff" stroke-width="0.5" opacity="1.0" marker-end="url(#arrow)"/><line x1="721" y1="334" x2="618" y2="334" stroke="#4c4cff" stroke-width="0.5" opacity="1.0" marker-end="url(#arrow)"/><line x1="539" y1="648" x2="435" y2="648" stroke="#4c4cff" stroke-width="0.5" opacity="1.0" marker-end="url(#arrow)"/><line x1="447" y1="283" x2="504" y2="284" stroke="#4c4cff" stroke-width="0.5" opacity="1.0" marker-end="url(#arrow)"/><line x1="566" y1="334" x2="511" y2="334" stroke="#4c4cff" stroke-width="0.5" opacity="1.0" marker-end="url(#arrow)"/><line x1="377" y1="648" x2="322" y2="649" stroke="#4c4cff" stroke-width="0.5" opacity="1.0" marker-end="url(#arrow)"/><line x1="257" y1="615" x2="315" y2="616" stroke="#4c4cff" stroke-width="0.5" opacity="1.0" marker-end="url(#arrow)"/></svg>