<svg xmlns="http://www.w3.org/2000/svg" viewBox="0 0 1040 819" width="1040" height="819" style="display:block;max-width:100%;margin:0 auto"><defs><marker id="arrow" markerWidth="8" markerHeight="8" refX="7" refY="3" orient="auto"><path d="M0,0 L0,6 L7,3 z" fill="#000000"/></marker></defs><line x1="406" y1="95" x2="406" y2="799" stroke="#000000" stroke-width="2.37" opacity="1.0" marker-end="url(#arrow)"/><line x1="20" y1="484" x2="793" y2="487" stroke="#000000" stroke-width="2.37" opacity="1.0" marker-end="url(#arrow)"/><line x1="743" y1="600" x2="89" y2="376" stroke="#008000" stroke-width="2.37" opacity="1.0"/><rect x="348" y="530" width="55" height="63" rx="3" fill="none" fill-opacity="1.0" stroke="none" stroke-width="0.5" opacity="1.0"/><text x="376" y="561" text-anchor="middle" dominant-baseline="middle" font-size="28" font-weight="400" font-style="normal" fill="#000000" opacity="1.0">0</text><rect x="793" y="456" width="105" height="71" rx="3" fill="none" fill-opacity="1.0" stroke="none" stroke-width="0.5" opacity="1.0"/><text x="845" y="491" text-anchor="middle" dominant-baseline="middle" font-size="28" font-weight="400" font-style="normal" fill="#000000" opacity="1.0">y₁ (t)</text><rect x="346" y="20" width="113" height="75" rx="3" fill="none" fill-opacity="1.0" stroke="none" stroke-width="0.5" opacity="1.0"/><text x="403" y="58" text-anchor="middle" dominant-baseline="middle" font-size="28" font-weight="400" font-style="normal" fill="#000000" opacity="1.0">y₂ (t)</text><rect x="664" y="101" width="277" height="110" rx="3" fill="none" fill-opacity="1.0" stroke="none" stroke-width="0.5" opacity="1.0"/><text x="802" y="156" text-anchor="middle" dominant-baseline="middle" font-size="28" font-weight="400" font-style="normal" fill="#000000" opacity="1.0">y₂ (t)=y₁ (t)</text><line x1="526" y1="602" x2="526" y2="693" stroke="#4c4cff" stroke-width="0.5" opacity="1.0" marker-end="url(#arrow)"/><line x1="593" y1="337" x2="593" y2="441" stroke="#4c4cff" stroke-width="0.5" opacity="1.0" marker-end="url(#arrow)"/><line x1="207" y1="616" x2="207" y2="513" stroke="#4c4cff" stroke-width="0.5" opacity="1.0" marker-end="url(#arrow)"/><line x1="208" y1="325" x2="203" y2="231" stroke="#4c4cff" stroke-width="0.5" opacity="1.0" marker-end="url(#arrow)"/><line x1="178" y1="724" x2="676" y2="208" stroke="#ca56a7" stroke-width="2.37" opacity="1.0"/><rect x="743" y="560" width="277" height="110" rx="3" fill="none" fill-opacity="1.0" stroke="none" stroke-width="0.5" opacity="1.0"/><text x="881" y="615" text-anchor="middle" dominant-baseline="middle" font-size="28" font-weight="400" font-style="normal" fill="#000000" opacity="1.0">y₂ (t)=- {1} over {4} y₁ (t)</text><line x1="445" y1="695" x2="523" y2="691" stroke="#4c4cff" stroke-width="0.5" opacity="1.0" marker-end="url(#arrow)"/><line x1="696" y1="441" x2="593" y2="441" stroke="#4c4cff" stroke-width="0.5" opacity="1.0" marker-end="url(#arrow)"/><line x1="294" y1="234" x2="204" y2="233" stroke="#4c4cff" stroke-width="0.5" opacity="1.0" marker-end="url(#arrow)"/><line x1="106" y1="514" x2="206" y2="515" stroke="#4c4cff" stroke-width="0.5" opacity="1.0" marker-end="url(#arrow)"/><line x1="524" y1="694" x2="456" y2="617" stroke="#008000" stroke-width="0.5" opacity="1.0" marker-end="url(#arrow)"/><line x1="205" y1="514" x2="119" y2="605" stroke="#008000" stroke-width="0.5" opacity="1.0" marker-end="url(#arrow)"/><line x1="207" y1="235" x2="280" y2="312" stroke="#008000" stroke-width="0.5" opacity="1.0" marker-end="url(#arrow)"/><line x1="594" y1="438" x2="684" y2="348" stroke="#008000" stroke-width="0.5" opacity="1.0" marker-end="url(#arrow)"/></svg>