<svg xmlns="http://www.w3.org/2000/svg" viewBox="0 0 928 755" width="928" height="755" style="display:block;max-width:100%;margin:0 auto"><defs><marker id="arrow" markerWidth="8" markerHeight="8" refX="7" refY="3" orient="auto"><path d="M0,0 L0,6 L7,3 z" fill="#000000"/></marker></defs><line x1="20" y1="486" x2="779" y2="486" stroke="#000000" stroke-width="2.37" opacity="1.0" marker-end="url(#arrow)"/><line x1="369" y1="103" x2="370" y2="735" stroke="#000000" stroke-width="2.37" opacity="1.0" marker-start="url(#arrow)"/><rect x="333" y="20" width="117" height="82" rx="3" fill="none" fill-opacity="1.0" stroke="none" stroke-width="0.5" opacity="1.0"/><text x="392" y="61" text-anchor="middle" dominant-baseline="middle" font-size="28" font-weight="400" font-style="normal" fill="#000000" opacity="1.0">y₂ (t)</text><rect x="791" y="445" width="117" height="82" rx="3" fill="none" fill-opacity="1.0" stroke="none" stroke-width="0.5" opacity="1.0"/><text x="850" y="486" text-anchor="middle" dominant-baseline="middle" font-size="28" font-weight="400" font-style="normal" fill="#000000" opacity="1.0">y₁ (t)</text><line x1="163" y1="434" x2="163" y2="354" stroke="#ff0000" stroke-width="0.5" opacity="1.0" marker-end="url(#arrow)"/><line x1="332" y1="570" x2="332" y2="649" stroke="#ff0000" stroke-width="0.5" opacity="1.0" marker-end="url(#arrow)"/><rect x="332" y="487" width="62" height="82" rx="3" fill="none" fill-opacity="1.0" stroke="none" stroke-width="0.5" opacity="1.0"/><text x="363" y="528" text-anchor="middle" dominant-baseline="middle" font-size="28" font-weight="400" font-style="normal" fill="#000000" opacity="1.0">0</text><rect x="610" y="610" width="159" height="82" rx="3" fill="none" fill-opacity="1.0" stroke="none" stroke-width="0.5" opacity="1.0"/><text x="689" y="651" text-anchor="middle" dominant-baseline="middle" font-size="28" font-weight="400" font-style="normal" fill="#000000" opacity="1.0">TRIANGLE y₂ (t)</text><line x1="598" y1="419" x2="598" y2="340" stroke="#ff0000" stroke-width="0.5" opacity="1.0" marker-end="url(#arrow)"/><line x1="400" y1="250" x2="479" y2="250" stroke="#ff0000" stroke-width="0.5" opacity="1.0" marker-end="url(#arrow)"/><rect x="332" y="250" width="62" height="82" rx="3" fill="none" fill-opacity="1.0" stroke="none" stroke-width="0.5" opacity="1.0"/><text x="362" y="291" text-anchor="middle" dominant-baseline="middle" font-size="28" font-weight="400" font-style="normal" fill="#000000" opacity="1.0">2</text><line x1="332" y1="366" x2="332" y2="445" stroke="#ff0000" stroke-width="0.5" opacity="1.0" marker-end="url(#arrow)"/><line x1="400" y1="250" x2="400" y2="171" stroke="#ff0000" stroke-width="0.5" opacity="1.0" marker-end="url(#arrow)"/><line x1="163" y1="434" x2="83" y2="434" stroke="#ff0000" stroke-width="0.5" opacity="1.0" marker-end="url(#arrow)"/><line x1="598" y1="419" x2="518" y2="419" stroke="#ff0000" stroke-width="0.5" opacity="1.0" marker-end="url(#arrow)"/><line x1="332" y1="366" x2="411" y2="366" stroke="#ff0000" stroke-width="0.5" opacity="1.0" marker-end="url(#arrow)"/><line x1="332" y1="571" x2="252" y2="571" stroke="#ff0000" stroke-width="0.5" opacity="1.0" marker-end="url(#arrow)"/><line x1="401" y1="248" x2="468" y2="185" stroke="#008000" stroke-width="0.5" opacity="1.0" marker-end="url(#arrow)"/><line x1="164" y1="434" x2="89" y2="361" stroke="#008000" stroke-width="0.5" opacity="1.0" marker-end="url(#arrow)"/><line x1="327" y1="572" x2="264" y2="637" stroke="#008000" stroke-width="0.5" opacity="1.0" marker-end="url(#arrow)"/><line x1="599" y1="419" x2="531" y2="349" stroke="#008000" stroke-width="0.5" opacity="1.0" marker-end="url(#arrow)"/><line x1="334" y1="367" x2="402" y2="428" stroke="#008000" stroke-width="0.5" opacity="1.0" marker-end="url(#arrow)"/><line x1="477" y1="392" x2="477" y2="484" stroke="#000000" stroke-width="0.5" opacity="1.0" stroke-dasharray="2 4"/><line x1="477" y1="392" x2="264" y2="393" stroke="#000000" stroke-width="0.5" opacity="1.0" stroke-dasharray="2 4"/><line x1="266" y1="396" x2="266" y2="487" stroke="#000000" stroke-width="0.5" opacity="1.0" stroke-dasharray="2 4"/><rect x="454" y="487" width="62" height="82" rx="3" fill="none" fill-opacity="1.0" stroke="none" stroke-width="0.5" opacity="1.0"/><text x="485" y="528" text-anchor="middle" dominant-baseline="middle" font-size="28" font-weight="400" font-style="normal" fill="#000000" opacity="1.0">1</text><rect x="235" y="487" width="62" height="82" rx="3" fill="none" fill-opacity="1.0" stroke="none" stroke-width="0.5" opacity="1.0"/><text x="266" y="528" text-anchor="middle" dominant-baseline="middle" font-size="28" font-weight="400" font-style="normal" fill="#000000" opacity="1.0">-1</text><rect x="370" y="355" width="62" height="82" rx="3" fill="none" fill-opacity="1.0" stroke="none" stroke-width="0.5" opacity="1.0"/><text x="401" y="396" text-anchor="middle" dominant-baseline="middle" font-size="28" font-weight="400" font-style="normal" fill="#000000" opacity="1.0">1</text><rect x="583" y="54" width="159" height="82" rx="3" fill="none" fill-opacity="1.0" stroke="none" stroke-width="0.5" opacity="1.0"/><text x="662" y="95" text-anchor="middle" dominant-baseline="middle" font-size="28" font-weight="400" font-style="normal" fill="#000000" opacity="1.0">TRIANGLE y₁ (t)</text></svg>